<svg viewBox="10 -9 131 131" version="1.1" xmlns="http://www.w3.org/2000/svg">
<path d="M 58.52 13.28 C 68.94 8.23 81.79 8.44 91.97 14.01 C 99.76 18.18 105.93 25.29 108.96 33.60 C 119.00 34.11 128.77 39.24 134.59 47.49 C 140.72 55.85 142.45 67.16 139.33 77.01 C 137.49 76.97 135.65 76.97 133.81 77.00 C 136.20 70.89 136.35 63.93 134.10 57.76 C 130.97 48.43 122.53 41.15 112.87 39.34 C 110.26 38.89 107.54 39.04 105.01 38.16 C 101.67 25.59 90.07 15.79 77.05 14.92 C 65.51 13.91 53.75 19.87 47.76 29.77 C 42.34 38.27 41.67 49.37 45.47 58.63 C 46.61 60.42 45.35 63.43 42.99 62.81 C 38.94 61.12 34.49 59.58 30.09 60.81 C 21.52 62.41 15.21 71.26 16.41 79.89 C 17.29 88.11 24.73 94.97 33.01 95.16 C 44.32 95.22 55.63 95.20 66.94 95.16 C 66.95 96.89 66.97 98.62 67.01 100.36 C 56.03 100.36 45.04 100.37 34.06 100.36 C 28.38 100.46 22.64 98.38 18.48 94.47 C 12.78 89.45 10.10 81.33 11.49 73.89 C 12.88 64.97 20.26 57.34 29.14 55.68 C 32.39 55.00 35.73 55.32 38.99 55.72 C 34.27 39.27 43.08 20.49 58.52 13.28 Z M 78.68 78.00 C 81.07 78.00 83.45 78.00 85.83 78.00 C 88.87 83.95 91.78 89.97 94.94 95.86 C 94.69 89.90 94.71 83.95 94.73 77.99 C 96.40 77.99 98.07 78.00 99.73 78.00 C 99.72 85.99 99.69 93.98 99.75 101.97 C 97.33 101.81 94.62 102.53 92.38 101.62 C 89.28 95.74 86.46 89.71 83.32 83.85 C 83.72 89.88 83.61 95.92 83.68 101.96 C 82.01 102.00 80.35 102.01 78.68 102.02 C 78.68 94.02 78.68 86.01 78.68 78.00 Z M 110.00 78.00 C 112.37 78.00 114.74 78.00 117.11 78.00 C 119.75 85.99 122.28 94.01 124.92 102.00 C 122.91 102.00 120.91 102.00 118.90 102.00 C 118.42 100.13 117.96 98.25 117.52 96.37 C 114.90 96.35 112.29 96.34 109.68 96.39 C 109.21 98.27 108.74 100.16 108.24 102.03 C 106.23 102.01 104.23 102.00 102.23 102.00 C 104.82 94.00 107.37 85.98 110.00 78.00 M 113.49 81.92 C 112.87 85.33 111.92 88.67 110.94 92.00 C 112.72 92.00 114.51 92.00 116.29 91.99 C 115.34 88.64 114.36 85.29 113.49 81.92 Z" />
</svg>
