<svg viewBox="15 -6 131 131" version="1.1" xmlns="http://www.w3.org/2000/svg">
<path d="M 62.85 17.61 C 73.42 12.20 86.65 12.32 97.07 18.06 C 104.83 22.24 110.94 29.33 113.98 37.60 C 124.21 38.11 134.15 43.46 139.93 51.97 C 145.74 60.18 147.32 71.08 144.48 80.68 C 142.70 81.33 140.68 80.87 138.82 81.01 C 141.16 74.92 141.36 68.00 139.13 61.85 C 135.94 52.24 127.13 44.77 117.12 43.23 C 114.75 42.93 112.33 42.92 110.04 42.20 C 106.60 29.28 94.46 19.30 81.03 18.85 C 69.82 18.25 58.59 24.17 52.76 33.77 C 48.38 40.62 47.12 49.22 48.76 57.13 C 49.22 59.81 50.79 62.25 50.88 64.97 C 50.37 67.02 48.01 67.29 46.46 66.24 C 41.04 63.56 34.27 63.80 29.25 67.23 C 22.48 71.47 19.36 80.74 22.52 88.14 C 25.04 94.76 31.91 99.35 39.00 99.19 C 49.98 99.17 60.96 99.22 71.94 99.16 C 71.95 100.89 71.98 102.62 72.01 104.36 C 60.33 104.31 48.65 104.46 36.98 104.29 C 26.39 103.75 17.10 94.72 16.26 84.15 C 15.00 74.18 21.38 63.98 30.82 60.60 C 35.01 58.99 39.61 59.09 43.99 59.71 C 39.35 43.52 47.80 25.02 62.85 17.61 Z M 85.68 83.00 C 88.07 83.00 90.45 83.00 92.84 83.00 C 95.90 88.75 98.43 94.81 101.89 100.33 C 101.73 94.55 101.70 88.76 101.73 82.98 C 103.41 82.99 105.08 83.00 106.76 83.03 C 106.70 91.01 106.70 98.99 106.76 106.97 C 104.29 107.03 101.82 107.05 99.35 106.88 C 96.52 100.80 93.42 94.84 90.33 88.88 C 90.72 94.90 90.61 100.93 90.69 106.95 C 89.02 107.00 87.35 107.01 85.68 107.03 C 85.68 99.02 85.68 91.01 85.68 83.00 Z M 113.45 84.47 C 117.23 81.99 122.03 83.01 126.01 84.41 C 125.54 85.83 124.99 87.23 124.41 88.61 C 122.36 88.06 120.28 87.08 118.10 87.42 C 116.49 87.69 115.69 89.91 116.89 91.06 C 119.27 93.16 122.72 93.75 124.84 96.21 C 127.12 99.15 126.33 104.14 122.92 105.89 C 119.11 107.81 114.66 107.03 110.76 105.83 C 110.70 104.16 110.67 102.50 110.63 100.83 C 113.62 101.73 116.97 103.71 120.03 102.02 C 122.31 98.50 117.41 97.11 115.05 95.93 C 110.38 94.36 109.29 87.18 113.45 84.47 Z" />
</svg>
