<svg viewBox="17 -3 131 131" version="1.1" xmlns="http://www.w3.org/2000/svg">
<path d="M 63.43 19.39 C 73.97 13.35 87.56 13.07 98.33 18.68 C 106.41 22.81 112.87 30.06 115.94 38.60 C 125.76 39.10 135.31 44.01 141.18 51.94 C 147.60 60.35 149.57 71.97 146.29 82.03 C 144.45 81.96 142.62 81.95 140.80 82.00 C 146.74 67.96 138.50 50.41 124.18 45.54 C 120.40 43.55 115.77 44.75 112.07 42.95 C 109.52 35.10 104.41 27.94 97.06 23.93 C 85.37 17.02 69.32 19.06 59.71 28.65 C 50.34 37.34 47.51 51.89 52.46 63.60 C 53.63 65.41 52.34 68.44 49.94 67.81 C 45.91 66.05 41.43 64.59 37.03 65.82 C 28.82 67.39 22.65 75.62 23.32 83.94 C 23.73 92.54 31.38 99.96 39.97 100.16 C 51.29 100.22 62.61 100.22 73.92 100.16 C 73.94 101.89 73.97 103.62 74.01 105.35 C 63.01 105.35 52.02 105.36 41.02 105.35 C 35.35 105.45 29.63 103.37 25.49 99.47 C 19.77 94.44 17.09 86.29 18.50 78.84 C 19.91 69.96 27.26 62.36 36.10 60.70 C 39.40 60.00 42.79 60.34 46.10 60.71 C 41.41 45.11 49.28 27.18 63.43 19.39 Z M 75.96 87.00 C 77.95 87.00 79.93 87.00 81.92 87.00 C 83.42 93.38 85.62 99.61 86.54 106.11 C 88.23 99.79 89.92 93.47 91.44 87.11 C 93.46 86.98 95.49 86.98 97.52 86.99 C 95.00 95.00 92.42 103.00 89.90 111.01 C 87.72 111.03 85.55 111.03 83.39 110.85 C 81.13 102.84 78.43 94.95 75.96 87.00 Z M 99.95 87.00 C 105.70 87.16 112.96 85.75 116.93 91.06 C 120.47 96.51 120.01 105.47 114.16 109.19 C 109.89 111.81 104.69 110.82 99.95 111.00 C 99.95 103.00 99.95 95.00 99.95 87.00 M 105.48 91.21 C 105.49 96.39 105.48 101.58 105.48 106.77 C 108.13 106.85 111.39 106.44 112.51 103.60 C 113.62 100.48 113.74 96.73 112.25 93.71 C 110.97 91.21 107.90 91.20 105.48 91.21 Z M 123.50 87.00 C 125.35 87.00 127.20 87.00 129.05 87.00 C 129.22 92.63 128.69 98.31 129.34 103.91 C 130.03 107.56 136.15 107.56 136.88 103.92 C 137.41 98.30 136.99 92.64 137.11 87.00 C 138.99 86.99 140.86 87.00 142.74 87.02 C 142.54 92.81 143.05 98.64 142.47 104.40 C 140.88 113.07 126.05 113.43 123.87 105.00 C 123.07 99.05 123.70 92.99 123.50 87.00 Z" />
</svg>
