<svg viewBox="13 -9 131 131" version="1.1" xmlns="http://www.w3.org/2000/svg">
<path d="M 61.89 14.64 C 71.85 10.36 83.72 10.66 93.36 15.69 C 101.43 19.82 107.86 27.07 110.96 35.60 C 121.21 36.11 131.15 41.47 136.93 49.99 C 142.80 58.29 144.36 69.34 141.34 79.01 C 139.50 78.97 137.65 78.96 135.81 79.00 C 141.73 64.92 133.47 47.37 119.11 42.52 C 115.36 40.56 110.76 41.74 107.08 39.96 C 105.05 34.18 102.01 28.62 97.26 24.62 C 89.85 18.05 79.21 15.30 69.56 17.64 C 60.87 19.50 53.20 25.40 48.93 33.17 C 44.43 41.21 43.84 51.29 47.21 59.85 C 47.67 61.22 48.48 62.95 47.18 64.14 C 46.07 65.56 44.18 64.55 42.88 64.00 C 37.59 61.51 31.07 61.96 26.23 65.24 C 20.45 68.91 17.25 76.23 18.57 82.96 C 19.94 90.73 27.11 96.96 35.01 97.16 C 46.31 97.22 57.62 97.21 68.93 97.16 C 68.94 98.89 68.97 100.62 69.01 102.36 C 58.02 102.36 47.03 102.36 36.04 102.36 C 30.37 102.45 24.64 100.38 20.49 96.48 C 14.79 91.47 12.10 83.35 13.49 75.92 C 14.87 67.00 22.23 59.37 31.10 57.69 C 34.37 57.00 37.72 57.32 41.01 57.71 C 36.08 40.76 45.68 21.40 61.89 14.64 Z M 72.96 82.00 C 74.95 82.00 76.94 82.00 78.92 82.00 C 80.49 88.35 82.47 94.61 83.66 101.05 C 85.18 94.81 86.79 88.59 88.47 82.39 C 90.19 81.44 92.56 82.24 94.51 82.00 C 92.00 90.01 89.42 98.00 86.90 106.01 C 84.72 106.04 82.54 106.02 80.37 105.84 C 78.14 97.83 75.42 89.95 72.96 82.00 Z M 96.95 82.00 C 99.31 82.00 101.68 82.00 104.04 81.99 C 107.13 87.90 110.00 93.92 113.16 99.79 C 112.88 93.86 113.04 87.93 113.00 82.00 C 114.66 82.00 116.32 82.00 117.99 82.00 C 117.98 90.00 117.99 98.00 117.99 106.00 C 115.60 106.00 113.22 106.00 110.84 106.03 C 107.62 100.03 104.86 93.80 101.49 87.89 C 102.08 93.91 101.89 99.96 101.88 106.00 C 100.24 106.00 98.59 106.00 96.95 106.00 C 96.95 98.00 96.95 90.00 96.95 82.00 Z M 123.34 82.09 C 127.85 81.90 132.36 82.03 136.86 82.01 C 136.79 83.44 136.74 84.88 136.69 86.31 C 134.10 86.25 131.51 86.23 128.93 86.26 C 128.92 88.17 128.92 90.08 128.92 92.00 C 131.34 92.00 133.76 92.00 136.19 92.00 C 136.18 93.41 136.17 94.83 136.16 96.24 C 133.75 96.25 131.34 96.24 128.93 96.26 C 128.91 99.51 128.92 102.77 128.92 106.02 C 127.06 106.01 125.20 105.99 123.34 105.91 C 123.46 97.97 123.46 90.03 123.34 82.09 Z" />
</svg>
